<?xml version="1.0" standalone="no"?>
<!DOCTYPE svg PUBLIC "-//W3C//DTD SVG 20010904//EN"
 "http://www.w3.org/TR/2001/REC-SVG-20010904/DTD/svg10.dtd">
<svg version="1.0" xmlns="http://www.w3.org/2000/svg"
 width="300.000000pt" height="200.000000pt" viewBox="0 0 300.000000 200.000000"
 preserveAspectRatio="xMidYMid meet">
<metadata>
Created by potrace 1.10, written by Peter Selinger 2001-2011
</metadata>
<g transform="translate(0.000000,200.000000) scale(0.100000,-0.100000)"
fill="#000000" stroke="none">
<path d="M1085 1791 c-16 -10 -173 -162 -347 -337 -273 -276 -317 -324 -323
-356 -17 -90 -19 -87 323 -432 343 -344 367 -363 445 -351 39 7 67 32 365 329
178 176 330 333 338 348 18 35 18 101 0 136 -8 15 -162 174 -343 355 l-329
327 -49 0 c-32 0 -61 -7 -80 -19z m264 -173 c86 -84 235 -233 331 -331 l175
-178 0 -49 0 -50 -325 -325 -326 -325 -49 0 -50 0 -322 323 c-212 212 -324
331 -328 349 -4 16 -4 40 0 55 7 30 623 658 660 673 58 25 71 17 234 -142z"/>
<path d="M1080 1584 c-60 -51 -75 -111 -41 -174 66 -126 239 -93 258 48 6 46
-13 88 -57 126 -44 37 -116 37 -160 0z m153 -45 c39 -42 38 -97 -4 -138 -65
-65 -169 -18 -169 76 0 37 25 72 64 89 41 18 75 10 109 -27z"/>
<path d="M669 1175 c-14 -8 -34 -26 -44 -41 -44 -67 -37 -129 20 -184 32 -31
42 -35 90 -35 43 0 58 5 80 25 43 40 58 78 52 129 -4 37 -13 52 -46 83 -34 32
-47 38 -83 38 -24 -1 -55 -7 -69 -15z m124 -45 c51 -41 52 -119 1 -159 -75
-59 -188 23 -155 111 25 66 101 89 154 48z"/>
<path d="M1093 1171 c-92 -58 -94 -177 -3 -238 77 -53 188 -2 206 93 9 48 -2
79 -39 121 -28 30 -42 36 -83 40 -37 3 -57 -1 -81 -16z m138 -50 c23 -23 29
-38 29 -71 0 -102 -139 -139 -186 -49 -18 36 -18 63 1 99 19 37 41 49 88 50
29 0 45 -7 68 -29z"/>
<path d="M1537 1171 c-84 -55 -94 -151 -23 -220 86 -84 226 -19 226 104 0 102
-120 171 -203 116z m135 -48 c33 -36 40 -69 24 -108 -29 -69 -102 -86 -158
-36 -27 24 -33 36 -33 71 0 87 109 134 167 73z"/>
<path d="M1090 748 c-38 -26 -70 -81 -70 -118 0 -37 32 -92 70 -118 62 -42
147 -19 190 50 72 118 -77 263 -190 186z m141 -47 c63 -64 20 -171 -69 -171
-45 0 -87 32 -98 74 -24 99 95 168 167 97z"/>
<path d="M2004 1090 c4 -29 0 -66 -10 -100 -15 -51 -31 -71 -255 -295 l-239
-241 0 -69 c1 -108 34 -167 113 -200 51 -21 811 -22 870 -1 50 18 76 42 98 91
17 36 19 71 18 375 0 351 -4 385 -46 432 -40 44 -60 48 -313 50 l-242 3 6 -45z
m497 -23 c57 -38 60 -61 57 -432 -3 -367 -3 -365 -71 -402 -29 -16 -69 -18
-444 -18 -400 0 -412 1 -440 21 -45 33 -65 80 -60 147 l3 57 225 228 c134 135
233 242 243 265 10 21 22 65 28 97 l12 60 206 0 c199 0 208 -1 241 -23z"/>
<path d="M1989 747 c-65 -43 -86 -124 -49 -185 57 -94 183 -94 240 0 25 41 25
83 1 128 -40 76 -126 102 -192 57z m142 -48 c63 -67 20 -169 -71 -169 -92 0
-134 104 -69 169 43 44 99 44 140 0z"/>
</g>
</svg>
